<svg id="Layer_1" data-name="Layer 1" xmlns="http://www.w3.org/2000/svg" viewBox="0 0 656.83 126.24"><defs><style>.cls-1{fill:#ffd524;}.cls-2{fill:#6b400d;}.cls-3{fill:#4d4d4d;}</style></defs><title>mineschamber-mail-manager-logo</title><path class="cls-1" d="M62.25,166.89H194.93A14.26,14.26,0,0,0,208.82,153V112.62H166l-27.09,27.31a14,14,0,0,1-9.93,3.92,15.22,15.22,0,0,1-10.11-3.76L91.43,112.62H48.38V153A14.23,14.23,0,0,0,62.25,166.89Z" transform="translate(-41.2 -51.2)"/><path class="cls-2" d="M216,72.42a19.58,19.58,0,0,0-5.52-14.61,21.44,21.44,0,0,0-15.52-6.61H119a3.59,3.59,0,0,0,0,7.18h76a14.31,14.31,0,0,1,10.32,4.39,12.72,12.72,0,0,1,3.55,9.5V153a14.27,14.27,0,0,1-13.89,13.89H62.25A14.26,14.26,0,0,1,48.36,153V72.27c0-7.53,6.57-13.89,14.36-13.89h5.87a3.59,3.59,0,1,0,0-7.18H62.72a21.32,21.32,0,0,0-21.52,21V153a21.33,21.33,0,0,0,21,21.05H194.93A21.32,21.32,0,0,0,216,153V72.42Z" transform="translate(-41.2 -51.2)"/><path class="cls-2" d="M92.46,58.38h1.19a3.59,3.59,0,1,0,0-7.18H92.46a3.59,3.59,0,1,0,0,7.18Zm11,0h3.85a3.59,3.59,0,1,0,0-7.18h-3.85a3.59,3.59,0,1,0,0,7.18ZM129,143.85a14,14,0,0,0,9.93-3.92L166,112.62,200.8,77.57a3.59,3.59,0,0,0-5.09-5l-61.88,62.36c-2.41,2.42-7.37,2.36-10,0L62,73a3.59,3.59,0,0,0-5.07,5.07l34.55,34.54,27.46,27.45A15.24,15.24,0,0,0,129,143.85Z" transform="translate(-41.2 -51.2)"/><path class="cls-3" d="M263,154.92l-8.13-32.31v35a6.36,6.36,0,0,1-1.3,4.36,4.76,4.76,0,0,1-6.83,0,6.26,6.26,0,0,1-1.31-4.37V117.49c0-2.22.57-3.71,1.73-4.48a8.22,8.22,0,0,1,4.67-1.16H255a12.08,12.08,0,0,1,4.17.52,3.49,3.49,0,0,1,1.92,1.86,29.65,29.65,0,0,1,1.42,4.4l7.37,27.78,7.36-27.78a30.9,30.9,0,0,1,1.42-4.4,3.49,3.49,0,0,1,1.92-1.86,12.08,12.08,0,0,1,4.17-.52h3.19a8.26,8.26,0,0,1,4.67,1.16q1.72,1.15,1.72,4.48v40.13A6.41,6.41,0,0,1,293,162a4.47,4.47,0,0,1-3.48,1.45,4.33,4.33,0,0,1-3.35-1.45,6.32,6.32,0,0,1-1.32-4.36v-35l-8.13,32.31c-.53,2.1-1,3.64-1.3,4.62a6.34,6.34,0,0,1-1.85,2.68,5.42,5.42,0,0,1-3.73,1.21,5.48,5.48,0,0,1-5-2.77A11.66,11.66,0,0,1,263.8,158Z" transform="translate(-41.2 -51.2)"/><path class="cls-3" d="M328.1,158.1a29,29,0,0,1-6.63,4,18.62,18.62,0,0,1-7.17,1.33,13.59,13.59,0,0,1-6.39-1.44,10.52,10.52,0,0,1-4.24-3.89,10.11,10.11,0,0,1-1.48-5.33,9.55,9.55,0,0,1,2.45-6.6,12.24,12.24,0,0,1,6.75-3.67c.6-.14,2.09-.45,4.46-.94s4.41-.92,6.11-1.33,3.53-.89,5.52-1.47a9.84,9.84,0,0,0-1.51-5.48q-1.34-1.75-5.52-1.75a11.45,11.45,0,0,0-5.41,1,8.71,8.71,0,0,0-3.11,3,30.88,30.88,0,0,1-1.84,2.65,3,3,0,0,1-2.3.64,4,4,0,0,1-2.75-1,3.33,3.33,0,0,1-1.16-2.61,8,8,0,0,1,1.77-4.84,12.62,12.62,0,0,1,5.5-3.88,24.86,24.86,0,0,1,9.3-1.52,26.29,26.29,0,0,1,9.79,1.47,9.1,9.1,0,0,1,5,4.65,20.36,20.36,0,0,1,1.47,8.44c0,2.22,0,4.1,0,5.64s0,3.27-.05,5.16a19,19,0,0,0,.88,5.55,17.45,17.45,0,0,1,.88,3.72,3.49,3.49,0,0,1-1.36,2.65,4.62,4.62,0,0,1-3.1,1.19,4.17,4.17,0,0,1-2.87-1.37A20,20,0,0,1,328.1,158.1Zm-.62-13.66a48.63,48.63,0,0,1-6,1.6q-4,.86-5.48,1.25a7.4,7.4,0,0,0-2.91,1.56,4,4,0,0,0-1.38,3.23,4.79,4.79,0,0,0,1.62,3.65,6,6,0,0,0,4.26,1.51,11,11,0,0,0,5.17-1.23,8.24,8.24,0,0,0,3.48-3.17q1.28-2.15,1.28-7.05Z" transform="translate(-41.2 -51.2)"/><path class="cls-3" d="M351.11,120.63a5,5,0,0,1-3.38-1.21,4.7,4.7,0,0,1,0-6.73,4.83,4.83,0,0,1,3.34-1.29,5,5,0,0,1,3.25,1.17,4.23,4.23,0,0,1,1.42,3.43,4.34,4.34,0,0,1-1.39,3.41A4.77,4.77,0,0,1,351.11,120.63Zm4.67,9.76v27.3a6.1,6.1,0,0,1-1.35,4.29,4.52,4.52,0,0,1-3.43,1.45,4.26,4.26,0,0,1-3.37-1.49,6.25,6.25,0,0,1-1.3-4.25v-27a6,6,0,0,1,1.3-4.22A4.34,4.34,0,0,1,351,125a4.53,4.53,0,0,1,3.43,1.42A5.48,5.48,0,0,1,355.78,130.39Z" transform="translate(-41.2 -51.2)"/><path class="cls-3" d="M365.53,157.69v-41a6.35,6.35,0,0,1,1.26-4.29A4.3,4.3,0,0,1,370.2,111a4.45,4.45,0,0,1,3.46,1.44,6.18,6.18,0,0,1,1.32,4.31v41a6.1,6.1,0,0,1-1.34,4.3,4.45,4.45,0,0,1-3.44,1.44,4.26,4.26,0,0,1-3.37-1.49A6.25,6.25,0,0,1,365.53,157.69Z" transform="translate(-41.2 -51.2)"/><path class="cls-3" d="M420.23,154.92l-8.13-32.31v35a6.36,6.36,0,0,1-1.3,4.36,4.76,4.76,0,0,1-6.83,0,6.26,6.26,0,0,1-1.32-4.37V117.49q0-3.33,1.73-4.48a8.24,8.24,0,0,1,4.67-1.16h3.19a12,12,0,0,1,4.16.52,3.43,3.43,0,0,1,1.92,1.86,28.5,28.5,0,0,1,1.42,4.4l7.37,27.78,7.37-27.78a28.5,28.5,0,0,1,1.42-4.4,3.43,3.43,0,0,1,1.92-1.86,12,12,0,0,1,4.17-.52h3.18a8.22,8.22,0,0,1,4.67,1.16q1.73,1.15,1.73,4.48v40.13a6.36,6.36,0,0,1-1.3,4.36,4.44,4.44,0,0,1-3.47,1.45,4.37,4.37,0,0,1-3.36-1.45,6.31,6.31,0,0,1-1.31-4.36v-35L434,154.92c-.53,2.1-1,3.64-1.3,4.62a6.44,6.44,0,0,1-1.85,2.68,5.44,5.44,0,0,1-3.74,1.21,5.48,5.48,0,0,1-5-2.77A11.23,11.23,0,0,1,421,158Q420.64,156.51,420.23,154.92Z" transform="translate(-41.2 -51.2)"/><path class="cls-3" d="M485.34,158.1a29.45,29.45,0,0,1-6.63,4,18.67,18.67,0,0,1-7.18,1.33,13.55,13.55,0,0,1-6.38-1.44,10.45,10.45,0,0,1-4.24-3.89,10.12,10.12,0,0,1-1.49-5.33,9.51,9.51,0,0,1,2.46-6.6,12.24,12.24,0,0,1,6.75-3.67c.6-.14,2.08-.45,4.46-.94s4.41-.92,6.11-1.33,3.53-.89,5.51-1.47a9.77,9.77,0,0,0-1.5-5.48q-1.33-1.75-5.52-1.75a11.45,11.45,0,0,0-5.41,1,8.81,8.81,0,0,0-3.12,3,29.25,29.25,0,0,1-1.83,2.65,3,3,0,0,1-2.3.64,4,4,0,0,1-2.75-1,3.3,3.3,0,0,1-1.16-2.61,8,8,0,0,1,1.76-4.84,12.68,12.68,0,0,1,5.5-3.88,25,25,0,0,1,9.31-1.52,26.36,26.36,0,0,1,9.79,1.47,9.08,9.08,0,0,1,5,4.65,20.36,20.36,0,0,1,1.47,8.44c0,2.22,0,4.1,0,5.64s0,3.27-.05,5.16a19,19,0,0,0,.88,5.55,17.45,17.45,0,0,1,.88,3.72,3.5,3.5,0,0,1-1.37,2.65,4.59,4.59,0,0,1-3.09,1.19,4.17,4.17,0,0,1-2.87-1.37A20,20,0,0,1,485.34,158.1Zm-.63-13.66a47.91,47.91,0,0,1-6,1.6q-4,.86-5.49,1.25a7.43,7.43,0,0,0-2.9,1.56,4,4,0,0,0-1.39,3.23,4.77,4.77,0,0,0,1.63,3.65,6,6,0,0,0,4.25,1.51A11.09,11.09,0,0,0,480,156a8.21,8.21,0,0,0,3.47-3.17c.86-1.43,1.28-3.78,1.28-7.05Z" transform="translate(-41.2 -51.2)"/><path class="cls-3" d="M512.15,130.25v1.14a16.44,16.44,0,0,1,5.44-4.82,14.5,14.5,0,0,1,6.8-1.54,13.62,13.62,0,0,1,6.68,1.62,10.35,10.35,0,0,1,4.39,4.61,10.62,10.62,0,0,1,1.21,3.73,37.8,37.8,0,0,1,.28,5.12v17.58a6.24,6.24,0,0,1-1.3,4.29,4.66,4.66,0,0,1-6.79,0,6.2,6.2,0,0,1-1.32-4.25V142a15.67,15.67,0,0,0-1.3-7.15c-.86-1.65-2.59-2.47-5.17-2.47a7.67,7.67,0,0,0-4.6,1.5,8.64,8.64,0,0,0-3,4.14q-.7,2.1-.7,7.88v11.84a6.1,6.1,0,0,1-1.33,4.3,4.47,4.47,0,0,1-3.44,1.44,4.3,4.3,0,0,1-3.36-1.49,6.25,6.25,0,0,1-1.31-4.25v-27.3a5.91,5.91,0,0,1,1.18-4,4,4,0,0,1,3.21-1.33,4.3,4.3,0,0,1,2.25.59,4.18,4.18,0,0,1,1.61,1.76A6.27,6.27,0,0,1,512.15,130.25Z" transform="translate(-41.2 -51.2)"/><path class="cls-3" d="M570.23,158.1a29.18,29.18,0,0,1-6.62,4,18.71,18.71,0,0,1-7.18,1.33,13.55,13.55,0,0,1-6.38-1.44,10.39,10.39,0,0,1-4.24-3.89,10.12,10.12,0,0,1-1.49-5.33,9.51,9.51,0,0,1,2.46-6.6,12.17,12.17,0,0,1,6.74-3.67c.6-.14,2.09-.45,4.47-.94s4.41-.92,6.1-1.33,3.54-.89,5.52-1.47a9.84,9.84,0,0,0-1.51-5.48q-1.32-1.75-5.51-1.75a11.49,11.49,0,0,0-5.42,1,8.71,8.71,0,0,0-3.11,3c-.87,1.34-1.48,2.23-1.83,2.65a3,3,0,0,1-2.31.64,4,4,0,0,1-2.75-1A3.32,3.32,0,0,1,546,135.2a7.93,7.93,0,0,1,1.76-4.84,12.68,12.68,0,0,1,5.5-3.88,24.88,24.88,0,0,1,9.31-1.52,26.36,26.36,0,0,1,9.79,1.47,9.11,9.11,0,0,1,5,4.65,20.36,20.36,0,0,1,1.47,8.44c0,2.22,0,4.1,0,5.64s0,3.27-.05,5.16a19.3,19.3,0,0,0,.88,5.55,17.73,17.73,0,0,1,.89,3.72,3.5,3.5,0,0,1-1.37,2.65,4.6,4.6,0,0,1-3.1,1.19,4.19,4.19,0,0,1-2.87-1.37A20.41,20.41,0,0,1,570.23,158.1Zm-.62-13.66a48.15,48.15,0,0,1-6,1.6q-4,.86-5.48,1.25a7.47,7.47,0,0,0-2.91,1.56,4,4,0,0,0-1.38,3.23,4.79,4.79,0,0,0,1.62,3.65,6.06,6.06,0,0,0,4.26,1.51,11,11,0,0,0,5.17-1.23,8.24,8.24,0,0,0,3.48-3.17q1.27-2.15,1.28-7.05Z" transform="translate(-41.2 -51.2)"/><path class="cls-3" d="M622.26,132v27.43a28.73,28.73,0,0,1-1,8.1,12.94,12.94,0,0,1-3.22,5.6,13.49,13.49,0,0,1-5.79,3.29,31.74,31.74,0,0,1-8.91,1.07,26,26,0,0,1-8.72-1.37,14.89,14.89,0,0,1-5.91-3.53,6.41,6.41,0,0,1-2.08-4.44,3.66,3.66,0,0,1,1.18-2.82,4,4,0,0,1,2.83-1.09,4.66,4.66,0,0,1,3.64,1.83c.5.63,1,1.25,1.57,1.89a9.17,9.17,0,0,0,1.8,1.62,7.1,7.1,0,0,0,2.37,1,13.75,13.75,0,0,0,3.18.33,12.87,12.87,0,0,0,5.69-1,5.84,5.84,0,0,0,2.84-2.86,11.45,11.45,0,0,0,.95-3.92q.14-2.1.21-6.73a15.5,15.5,0,0,1-5,4.63,13.72,13.72,0,0,1-6.79,1.59,14.3,14.3,0,0,1-8.29-2.42,15.46,15.46,0,0,1-5.45-6.78,24.92,24.92,0,0,1-1.9-10.07,23.73,23.73,0,0,1,1.16-7.68,16.07,16.07,0,0,1,3.3-5.77,14.18,14.18,0,0,1,5-3.55A15.66,15.66,0,0,1,601,125.1a14.75,14.75,0,0,1,7,1.54,16.91,16.91,0,0,1,5.47,4.82v-1.28a5.49,5.49,0,0,1,1.21-3.8,4,4,0,0,1,3.11-1.35c1.82,0,3,.59,3.63,1.78A11.7,11.7,0,0,1,622.26,132Zm-27.36,12c0,3.83.83,6.72,2.51,8.68a8.12,8.12,0,0,0,6.48,2.94,8.5,8.5,0,0,0,4.45-1.26,9.3,9.3,0,0,0,3.41-3.81,13.36,13.36,0,0,0,1.31-6.17q0-5.78-2.54-9a8.14,8.14,0,0,0-6.7-3.21,7.85,7.85,0,0,0-6.48,3.07C595.71,137.22,594.9,140.13,594.9,143.92Z" transform="translate(-41.2 -51.2)"/><path class="cls-3" d="M656.41,146.55H637.93a12.67,12.67,0,0,0,1.3,5.67,8.71,8.71,0,0,0,8,4.95,11.45,11.45,0,0,0,3.09-.4,10.09,10.09,0,0,0,2.72-1.25,21.47,21.47,0,0,0,2.42-1.81c.74-.65,1.69-1.52,2.87-2.63a3.09,3.09,0,0,1,2.08-.62,3.41,3.41,0,0,1,2.35.79,2.84,2.84,0,0,1,.9,2.25,6.23,6.23,0,0,1-1,3,11.94,11.94,0,0,1-3,3.29,17.23,17.23,0,0,1-5.09,2.61,22,22,0,0,1-7,1q-9.09,0-14.15-5.19t-5.05-14.08a23.53,23.53,0,0,1,1.25-7.77,17.22,17.22,0,0,1,3.63-6.14,15.78,15.78,0,0,1,5.88-3.92,20.92,20.92,0,0,1,7.75-1.37,18.45,18.45,0,0,1,9.5,2.33,15.34,15.34,0,0,1,5.93,6,15.81,15.81,0,0,1,2,7.54q0,3.57-2,4.62A12.74,12.74,0,0,1,656.41,146.55Zm-18.48-5.37h17.13c-.23-3.22-1.1-5.64-2.61-7.24a7.8,7.8,0,0,0-6-2.41,7.61,7.61,0,0,0-5.8,2.44C639.17,135.6,638.26,138,637.93,141.18Z" transform="translate(-41.2 -51.2)"/><path class="cls-3" d="M681.52,149.8v7.89a6.06,6.06,0,0,1-1.34,4.3,4.51,4.51,0,0,1-3.43,1.44,4.37,4.37,0,0,1-3.36-1.45,6.24,6.24,0,0,1-1.31-4.29v-26.3q0-6.36,4.6-6.36a3.82,3.82,0,0,1,3.39,1.49,8.21,8.21,0,0,1,1.14,4.39,16.39,16.39,0,0,1,3.48-4.39,7.14,7.14,0,0,1,4.76-1.49,12,12,0,0,1,5.77,1.49Q698,128,698,130.46a3.74,3.74,0,0,1-1.2,2.85,3.69,3.69,0,0,1-2.57,1.13,11.52,11.52,0,0,1-2.51-.64,11.6,11.6,0,0,0-3.51-.64,5.09,5.09,0,0,0-3.39,1.09,7,7,0,0,0-2.05,3.23,23.14,23.14,0,0,0-1,5.1C681.62,144.56,681.52,147,681.52,149.8Z" transform="translate(-41.2 -51.2)"/><path class="cls-2" d="M422.21,82.6c-.18-3.38-.39-7.45-.36-10.47h-.1c-.83,2.84-1.84,5.86-3.06,9.21L414.4,93.11H412L408.1,81.56C407,78.14,406,75,405.29,72.13h-.07c-.07,3-.25,7.09-.47,10.72l-.64,10.41h-3L402.81,69h4L411,80.73c1,3,1.83,5.65,2.44,8.17h.11c.61-2.45,1.48-5.11,2.56-8.17L420.38,69h4l1.51,24.26h-3.06Z" transform="translate(-41.2 -51.2)"/><path class="cls-2" d="M437.44,69V93.26h-3.13V69Z" transform="translate(-41.2 -51.2)"/><path class="cls-2" d="M446.52,93.26V69h3.41l7.78,12.27a68.24,68.24,0,0,1,4.35,7.88l.08,0c-.29-3.24-.36-6.19-.36-10V69h3V93.26h-3.17L453.86,81a79.38,79.38,0,0,1-4.54-8.1l-.11,0c.18,3.06.26,6,.26,10V93.26Z" transform="translate(-41.2 -51.2)"/><path class="cls-2" d="M486.37,81.88h-9.44v8.75h10.52v2.63H473.8V69h13.1v2.62h-10v7.67h9.44Z" transform="translate(-41.2 -51.2)"/><path class="cls-2" d="M494.68,89.44A11.17,11.17,0,0,0,500.3,91c3.2,0,5.07-1.69,5.07-4.13,0-2.27-1.29-3.57-4.57-4.83-4-1.4-6.41-3.45-6.41-6.87,0-3.78,3.14-6.59,7.85-6.59a11,11,0,0,1,5.36,1.19l-.86,2.55a9.68,9.68,0,0,0-4.61-1.15c-3.31,0-4.57,2-4.57,3.64,0,2.26,1.48,3.38,4.82,4.68,4.11,1.58,6.2,3.56,6.2,7.12,0,3.75-2.78,7-8.5,7a12.59,12.59,0,0,1-6.19-1.55Z" transform="translate(-41.2 -51.2)"/><path class="cls-2" d="M544.65,92.46a15.46,15.46,0,0,1-6.41,1.16c-6.84,0-12-4.32-12-12.28,0-7.59,5.15-12.74,12.67-12.74a13,13,0,0,1,5.76,1.08l-.75,2.55a11.52,11.52,0,0,0-4.9-1c-5.69,0-9.46,3.63-9.46,10,0,5.94,3.41,9.76,9.32,9.76A12.55,12.55,0,0,0,544,90Z" transform="translate(-41.2 -51.2)"/><path class="cls-2" d="M555.3,69V79.15H567V69h3.17V93.26H567V81.88H555.3V93.26h-3.13V69Z" transform="translate(-41.2 -51.2)"/><path class="cls-2" d="M583.17,85.63l-2.52,7.63h-3.24L585.65,69h3.78l8.28,24.26h-3.35l-2.59-7.63Zm8-2.45-2.37-7c-.54-1.58-.9-3-1.26-4.42h-.07c-.36,1.44-.76,2.91-1.23,4.39l-2.37,7Z" transform="translate(-41.2 -51.2)"/><path class="cls-2" d="M625.18,82.6c-.18-3.38-.4-7.45-.36-10.47h-.11c-.83,2.84-1.84,5.86-3.06,9.21l-4.28,11.77H615l-3.92-11.55c-1.15-3.42-2.13-6.55-2.81-9.43h-.07c-.07,3-.25,7.09-.47,10.72l-.65,10.41h-3L605.78,69h4l4.14,11.73c1,3,1.84,5.65,2.45,8.17h.11c.61-2.45,1.47-5.11,2.55-8.17L623.34,69h4l1.51,24.26h-3.06Z" transform="translate(-41.2 -51.2)"/><path class="cls-2" d="M637.28,69.32a30.08,30.08,0,0,1,5.72-.5c3.13,0,5.15.54,6.66,1.76a5.09,5.09,0,0,1,2,4.28,5.76,5.76,0,0,1-4.1,5.33v.07a6.26,6.26,0,0,1,5,6.09,6.5,6.5,0,0,1-2.06,4.85c-1.69,1.55-4.42,2.27-8.38,2.27a35.48,35.48,0,0,1-4.86-.29Zm3.13,9.93h2.84c3.31,0,5.26-1.72,5.26-4.06,0-2.85-2.16-4-5.33-4a13.37,13.37,0,0,0-2.77.21Zm0,11.63A16.56,16.56,0,0,0,643,91c3.24,0,6.22-1.18,6.22-4.71,0-3.31-2.84-4.68-6.26-4.68h-2.59Z" transform="translate(-41.2 -51.2)"/><path class="cls-2" d="M673,81.88h-9.43v8.75H674v2.63H660.39V69h13.1v2.62h-10v7.67H673Z" transform="translate(-41.2 -51.2)"/><path class="cls-2" d="M681.7,69.32a33,33,0,0,1,6-.5c3.35,0,5.51.61,7,2a6,6,0,0,1,1.91,4.6,6.36,6.36,0,0,1-4.57,6.19v.11c1.87.65,3,2.38,3.56,4.9a39.11,39.11,0,0,0,1.87,6.66h-3.24a32.85,32.85,0,0,1-1.62-5.8c-.72-3.35-2-4.61-4.86-4.71h-2.95V93.26H681.7Zm3.13,11.05H688c3.34,0,5.47-1.84,5.47-4.61,0-3.13-2.27-4.5-5.58-4.53a12.57,12.57,0,0,0-3.1.29Z" transform="translate(-41.2 -51.2)"/><rect class="cls-2" x="206.8" y="33.8" width="140" height="3.46"/></svg>