<svg id="logo" xmlns="http://www.w3.org/2000/svg" viewBox="0 0 383.77 73.76"><defs><style>.cls-1{fill:#fff;}.cls-2{fill:#ffd524;}.cls-3{fill:#6b400d;}.cls-4{fill:#4d4d4d;}</style></defs><title>app-logo</title><rect class="cls-1" x="0.66" y="1.5" width="101.39" height="69.81" rx="15"/><path class="cls-2" d="M19.5,82.8H97a8.34,8.34,0,0,0,8.12-8.12V51.09h-25l-15.83,16a8.2,8.2,0,0,1-5.8,2.29,8.92,8.92,0,0,1-5.91-2.2l-16-16H11.39V74.68A8.33,8.33,0,0,0,19.5,82.8Z" transform="translate(-7.2 -15.2)"/><path class="cls-3" d="M109.32,27.6a11.45,11.45,0,0,0-3.23-8.54A12.53,12.53,0,0,0,97,15.2H52.64a2.1,2.1,0,1,0,0,4.19H97a8.36,8.36,0,0,1,6,2.57,7.35,7.35,0,0,1,2.07,5.55V74.69A8.33,8.33,0,0,1,97,82.81H19.5a8.34,8.34,0,0,1-8.12-8.12V27.51a8.37,8.37,0,0,1,8.39-8.12H23.2a2.1,2.1,0,1,0,0-4.19H19.77A12.45,12.45,0,0,0,7.2,27.5V74.68A12.46,12.46,0,0,0,19.5,87H97a12.46,12.46,0,0,0,12.3-12.3V27.6Z" transform="translate(-7.2 -15.2)"/><path class="cls-3" d="M37.15,19.39h.7a2.1,2.1,0,0,0,0-4.19h-.7a2.1,2.1,0,1,0,0,4.19Zm6.43,0h2.24a2.1,2.1,0,1,0,0-4.19H43.58a2.1,2.1,0,1,0,0,4.19Zm14.92,50a8.2,8.2,0,0,0,5.8-2.29l15.83-16,20.32-20.48a2.09,2.09,0,1,0-3-2.95L61.32,64.09a4.6,4.6,0,0,1-5.85,0L19.33,27.94a2.1,2.1,0,0,0-3,3L36.55,51.09l16,16A8.93,8.93,0,0,0,58.5,69.34Z" transform="translate(-7.2 -15.2)"/><path class="cls-4" d="M136.79,75.8,132,56.92V77.38a3.67,3.67,0,0,1-.76,2.54,2.78,2.78,0,0,1-4,0,3.67,3.67,0,0,1-.77-2.55V53.93a3,3,0,0,1,1-2.62,4.84,4.84,0,0,1,2.73-.68h1.86a7.15,7.15,0,0,1,2.44.31A2.06,2.06,0,0,1,135.68,52a17.29,17.29,0,0,1,.83,2.57l4.3,16.23,4.31-16.23A16.17,16.17,0,0,1,146,52a2,2,0,0,1,1.12-1.09,7,7,0,0,1,2.43-.31h1.86a4.84,4.84,0,0,1,2.73.68,2.93,2.93,0,0,1,1,2.62V77.38a3.67,3.67,0,0,1-.76,2.54,2.56,2.56,0,0,1-2,.85,2.52,2.52,0,0,1-2-.85,3.67,3.67,0,0,1-.77-2.54V56.92L144.83,75.8q-.47,1.85-.75,2.7A3.83,3.83,0,0,1,143,80.07a3.14,3.14,0,0,1-2.18.7,3.34,3.34,0,0,1-1.78-.45,3.3,3.3,0,0,1-1.13-1.16,7.08,7.08,0,0,1-.64-1.57C137.11,77,137,76.42,136.79,75.8Z" transform="translate(-7.2 -15.2)"/><path class="cls-4" d="M174.83,77.66A16.5,16.5,0,0,1,171,80a10.82,10.82,0,0,1-4.19.78,7.92,7.92,0,0,1-3.73-.84,6,6,0,0,1-2.48-2.27,5.89,5.89,0,0,1-.87-3.11,5.55,5.55,0,0,1,1.44-3.86,7.16,7.16,0,0,1,3.94-2.15l2.6-.54c1.39-.29,2.58-.54,3.57-.78s2.07-.52,3.23-.86a5.76,5.76,0,0,0-.88-3.2c-.52-.68-1.6-1-3.23-1a6.73,6.73,0,0,0-3.16.58,5.17,5.17,0,0,0-1.82,1.76A17.87,17.87,0,0,1,164.31,66a1.77,1.77,0,0,1-1.35.37,2.32,2.32,0,0,1-1.6-.6,1.93,1.93,0,0,1-.68-1.52,4.66,4.66,0,0,1,1-2.83,7.32,7.32,0,0,1,3.22-2.26,14.28,14.28,0,0,1,5.43-.89,15.42,15.42,0,0,1,5.72.85A5.33,5.33,0,0,1,179,61.87a11.81,11.81,0,0,1,.86,4.94c0,1.29,0,2.39,0,3.29s0,1.91,0,3a11,11,0,0,0,.52,3.25,10.3,10.3,0,0,1,.51,2.17,2,2,0,0,1-.79,1.55,2.72,2.72,0,0,1-1.81.69,2.4,2.4,0,0,1-1.68-.8A11.85,11.85,0,0,1,174.83,77.66Zm-.36-8a29.2,29.2,0,0,1-3.53.94c-1.54.33-2.61.57-3.2.72a4.41,4.41,0,0,0-1.7.91,2.32,2.32,0,0,0-.81,1.89,2.79,2.79,0,0,0,1,2.14,3.53,3.53,0,0,0,2.49.87,6.46,6.46,0,0,0,3-.71,4.84,4.84,0,0,0,2-1.85,8.45,8.45,0,0,0,.75-4.13Z" transform="translate(-7.2 -15.2)"/><path class="cls-4" d="M188.27,55.77a2.92,2.92,0,0,1-2-.71,2.52,2.52,0,0,1-.82-2,2.49,2.49,0,0,1,.84-1.93,2.8,2.8,0,0,1,2-.76,2.87,2.87,0,0,1,1.9.69,2.45,2.45,0,0,1,.83,2,2.52,2.52,0,0,1-.81,2A2.79,2.79,0,0,1,188.27,55.77Zm2.73,5.7v16a3.52,3.52,0,0,1-.79,2.5,2.59,2.59,0,0,1-2,.85,2.49,2.49,0,0,1-2-.87,3.68,3.68,0,0,1-.76-2.48V61.63a3.6,3.6,0,0,1,.76-2.47,2.55,2.55,0,0,1,2-.82,2.63,2.63,0,0,1,2,.82A3.22,3.22,0,0,1,191,61.47Z" transform="translate(-7.2 -15.2)"/><path class="cls-4" d="M196.7,77.42V53.48a3.71,3.71,0,0,1,.74-2.5,2.48,2.48,0,0,1,2-.85,2.6,2.6,0,0,1,2,.84,3.62,3.62,0,0,1,.77,2.51V77.42a3.54,3.54,0,0,1-.78,2.51,2.62,2.62,0,0,1-2,.84,2.48,2.48,0,0,1-2-.87A3.63,3.63,0,0,1,196.7,77.42Z" transform="translate(-7.2 -15.2)"/><path class="cls-4" d="M228.66,75.8l-4.75-18.88V77.38a3.67,3.67,0,0,1-.76,2.54,2.78,2.78,0,0,1-4,0,3.67,3.67,0,0,1-.77-2.55V53.93a3,3,0,0,1,1-2.62,4.84,4.84,0,0,1,2.73-.68H224a7,7,0,0,1,2.43.31A2,2,0,0,1,227.55,52a17.29,17.29,0,0,1,.83,2.57l4.3,16.23L237,54.6a16.17,16.17,0,0,1,.83-2.57,2,2,0,0,1,1.12-1.09,7,7,0,0,1,2.43-.31h1.86a4.84,4.84,0,0,1,2.73.68,3,3,0,0,1,1,2.62V77.38a3.67,3.67,0,0,1-.76,2.54,2.56,2.56,0,0,1-2,.85,2.52,2.52,0,0,1-2-.85,3.67,3.67,0,0,1-.77-2.54V56.92L236.7,75.8q-.47,1.85-.75,2.7a3.83,3.83,0,0,1-1.09,1.57,3.14,3.14,0,0,1-2.18.7,3.34,3.34,0,0,1-1.78-.45,3.3,3.3,0,0,1-1.13-1.16,7.08,7.08,0,0,1-.64-1.57C229,77,228.82,76.42,228.66,75.8Z" transform="translate(-7.2 -15.2)"/><path class="cls-4" d="M266.7,77.66A16.5,16.5,0,0,1,262.83,80a10.82,10.82,0,0,1-4.19.78,7.92,7.92,0,0,1-3.73-.84,6,6,0,0,1-2.48-2.27,5.89,5.89,0,0,1-.87-3.11A5.55,5.55,0,0,1,253,70.69a7.16,7.16,0,0,1,3.94-2.15l2.6-.54c1.39-.29,2.58-.54,3.57-.78s2.07-.52,3.23-.86a5.76,5.76,0,0,0-.88-3.2c-.52-.68-1.6-1-3.23-1a6.73,6.73,0,0,0-3.16.58,5.17,5.17,0,0,0-1.82,1.76A17.87,17.87,0,0,1,256.18,66a1.77,1.77,0,0,1-1.35.37,2.34,2.34,0,0,1-1.6-.6,1.93,1.93,0,0,1-.68-1.52,4.66,4.66,0,0,1,1-2.83,7.32,7.32,0,0,1,3.22-2.26,14.28,14.28,0,0,1,5.43-.89,15.42,15.42,0,0,1,5.72.85,5.33,5.33,0,0,1,2.94,2.72,11.81,11.81,0,0,1,.86,4.94c0,1.29,0,2.39,0,3.29s0,1.91,0,3a11.28,11.28,0,0,0,.52,3.25,10.3,10.3,0,0,1,.51,2.17,2,2,0,0,1-.79,1.55,2.72,2.72,0,0,1-1.81.69,2.4,2.4,0,0,1-1.68-.8A11.85,11.85,0,0,1,266.7,77.66Zm-.36-8a29.2,29.2,0,0,1-3.53.94c-1.54.33-2.61.57-3.2.72a4.41,4.41,0,0,0-1.7.91,2.32,2.32,0,0,0-.81,1.89,2.83,2.83,0,0,0,.95,2.14,3.53,3.53,0,0,0,2.49.87,6.46,6.46,0,0,0,3-.71,4.84,4.84,0,0,0,2-1.85,8.45,8.45,0,0,0,.75-4.13Z" transform="translate(-7.2 -15.2)"/><path class="cls-4" d="M282.37,61.39v.67a9.67,9.67,0,0,1,3.18-2.82,8.48,8.48,0,0,1,4-.9,7.82,7.82,0,0,1,3.9.95A6,6,0,0,1,296,62a6.63,6.63,0,0,1,.71,2.19,24.08,24.08,0,0,1,.16,3V77.42a3.61,3.61,0,0,1-.76,2.5,2.49,2.49,0,0,1-2,.85,2.54,2.54,0,0,1-2-.87,3.63,3.63,0,0,1-.77-2.48v-9.2a9.09,9.09,0,0,0-.76-4.17,3.07,3.07,0,0,0-3-1.45,4.47,4.47,0,0,0-2.69.88,5.07,5.07,0,0,0-1.78,2.42,17.23,17.23,0,0,0-.4,4.6v6.92a3.54,3.54,0,0,1-.78,2.51,2.62,2.62,0,0,1-2,.84,2.5,2.5,0,0,1-2-.87,3.63,3.63,0,0,1-.77-2.48v-16a3.48,3.48,0,0,1,.69-2.36,2.4,2.4,0,0,1,1.88-.77,2.54,2.54,0,0,1,1.31.34,2.42,2.42,0,0,1,.94,1A3.6,3.6,0,0,1,282.37,61.39Z" transform="translate(-7.2 -15.2)"/><path class="cls-4" d="M316.3,77.66A16.5,16.5,0,0,1,312.43,80a10.75,10.75,0,0,1-4.19.78,7.92,7.92,0,0,1-3.73-.84A6.07,6.07,0,0,1,302,77.66a5.89,5.89,0,0,1-.87-3.11,5.55,5.55,0,0,1,1.44-3.86,7.2,7.2,0,0,1,3.94-2.15l2.61-.54c1.39-.29,2.58-.54,3.57-.78s2.06-.52,3.22-.86a5.76,5.76,0,0,0-.88-3.2c-.52-.68-1.59-1-3.22-1a6.78,6.78,0,0,0-3.17.58,5.25,5.25,0,0,0-1.82,1.76A17.87,17.87,0,0,1,305.78,66a1.74,1.74,0,0,1-1.34.37,2.35,2.35,0,0,1-1.61-.6,1.92,1.92,0,0,1-.67-1.52,4.66,4.66,0,0,1,1-2.83,7.23,7.23,0,0,1,3.21-2.26,14.37,14.37,0,0,1,5.44-.89,15.49,15.49,0,0,1,5.72.85,5.33,5.33,0,0,1,2.94,2.72,12,12,0,0,1,.86,4.94c0,1.29,0,2.39,0,3.29s0,1.91,0,3a11.25,11.25,0,0,0,.51,3.25,9.92,9.92,0,0,1,.52,2.17,2.05,2.05,0,0,1-.8,1.55,2.7,2.7,0,0,1-1.81.69,2.42,2.42,0,0,1-1.68-.8A11.85,11.85,0,0,1,316.3,77.66Zm-.36-8a28.69,28.69,0,0,1-3.53.94c-1.54.33-2.61.57-3.2.72a4.48,4.48,0,0,0-1.7.91,2.32,2.32,0,0,0-.81,1.89,2.83,2.83,0,0,0,.95,2.14,3.57,3.57,0,0,0,2.49.87,6.43,6.43,0,0,0,3-.71,4.84,4.84,0,0,0,2-1.85,8.45,8.45,0,0,0,.75-4.13Z" transform="translate(-7.2 -15.2)"/><path class="cls-4" d="M346.71,62.38v16a16.82,16.82,0,0,1-.59,4.73,7.56,7.56,0,0,1-1.88,3.27,7.8,7.8,0,0,1-3.39,1.92,18.29,18.29,0,0,1-5.2.63,15.25,15.25,0,0,1-5.1-.8,8.82,8.82,0,0,1-3.45-2.06,3.76,3.76,0,0,1-1.22-2.6,2.16,2.16,0,0,1,.69-1.65,2.37,2.37,0,0,1,1.66-.63,2.68,2.68,0,0,1,2.12,1.07l.92,1.1a5.51,5.51,0,0,0,1.05,1,4.29,4.29,0,0,0,1.39.59,8.59,8.59,0,0,0,1.86.19,7.46,7.46,0,0,0,3.32-.6,3.37,3.37,0,0,0,1.66-1.67,6.7,6.7,0,0,0,.56-2.29q.08-1.22.12-3.93a9.16,9.16,0,0,1-2.94,2.71,8.08,8.08,0,0,1-4,.93,8.34,8.34,0,0,1-4.84-1.42,9,9,0,0,1-3.18-4A14.61,14.61,0,0,1,325.18,69a14,14,0,0,1,.67-4.49,9.44,9.44,0,0,1,1.94-3.37,8.18,8.18,0,0,1,2.89-2.08,9.15,9.15,0,0,1,3.59-.69,8.67,8.67,0,0,1,4.07.9,9.9,9.9,0,0,1,3.19,2.82v-.75a3.24,3.24,0,0,1,.71-2.23,2.35,2.35,0,0,1,1.82-.78,2.13,2.13,0,0,1,2.12,1A6.8,6.8,0,0,1,346.71,62.38Zm-16,7a7.64,7.64,0,0,0,1.46,5.08A4.76,4.76,0,0,0,336,76.16a5,5,0,0,0,2.6-.73,5.51,5.51,0,0,0,2-2.23,7.8,7.8,0,0,0,.77-3.61,8.26,8.26,0,0,0-1.49-5.25,4.75,4.75,0,0,0-3.91-1.88,4.59,4.59,0,0,0-3.79,1.8A8.05,8.05,0,0,0,330.72,69.37Z" transform="translate(-7.2 -15.2)"/><path class="cls-4" d="M366.66,70.91h-10.8a7.41,7.41,0,0,0,.76,3.31,5,5,0,0,0,4.66,2.89,6.45,6.45,0,0,0,1.81-.23,5.77,5.77,0,0,0,1.58-.73,11.16,11.16,0,0,0,1.42-1.06c.43-.37,1-.89,1.68-1.53a1.77,1.77,0,0,1,1.21-.37,2,2,0,0,1,1.38.47,1.66,1.66,0,0,1,.52,1.31,3.52,3.52,0,0,1-.59,1.75,6.93,6.93,0,0,1-1.76,1.92,10.27,10.27,0,0,1-3,1.53,12.89,12.89,0,0,1-4.11.6q-5.31,0-8.27-3a11.32,11.32,0,0,1-2.95-8.23A13.53,13.53,0,0,1,351,65a10.06,10.06,0,0,1,2.12-3.59,9.3,9.3,0,0,1,3.44-2.3A12.38,12.38,0,0,1,361,58.3a10.71,10.71,0,0,1,5.54,1.36,9,9,0,0,1,3.47,3.53,9.24,9.24,0,0,1,1.15,4.4c0,1.39-.39,2.29-1.19,2.7A7.41,7.41,0,0,1,366.66,70.91Zm-10.8-3.13h10a6.77,6.77,0,0,0-1.53-4.24,4.54,4.54,0,0,0-3.49-1.4,4.4,4.4,0,0,0-3.38,1.42A7.13,7.13,0,0,0,355.86,67.78Z" transform="translate(-7.2 -15.2)"/><path class="cls-4" d="M381.33,72.81v4.61a3.5,3.5,0,0,1-.79,2.51,2.61,2.61,0,0,1-2,.84,2.52,2.52,0,0,1-2-.85,3.61,3.61,0,0,1-.77-2.5V62.06q0-3.72,2.69-3.72a2.23,2.23,0,0,1,2,.87,4.69,4.69,0,0,1,.67,2.56,9.56,9.56,0,0,1,2-2.56,4.19,4.19,0,0,1,2.78-.87,7.08,7.08,0,0,1,3.37.87,2.57,2.57,0,0,1,1.64,2.3,2.22,2.22,0,0,1-.69,1.67,2.16,2.16,0,0,1-1.51.65,6.89,6.89,0,0,1-1.47-.37,6.76,6.76,0,0,0-2.05-.37,3,3,0,0,0-2,.63,4.13,4.13,0,0,0-1.19,1.89,13.54,13.54,0,0,0-.59,3C381.38,69.75,381.33,71.15,381.33,72.81Z" transform="translate(-7.2 -15.2)"/><path class="cls-3" d="M353.27,30.47c0,6.27-3.81,9.6-8.46,9.6-4.81,0-8.19-3.73-8.19-9.25,0-5.78,3.59-9.57,8.46-9.57S353.27,25.06,353.27,30.47Zm-14.14.3c0,3.89,2.11,7.38,5.82,7.38s5.84-3.43,5.84-7.57c0-3.62-1.9-7.41-5.82-7.41S339.13,26.77,339.13,30.77Z" transform="translate(-7.2 -15.2)"/><path class="cls-3" d="M363,39.77l-5.95-18.22h2.54l2.84,9c.78,2.46,1.46,4.67,2,6.81h0c.51-2.11,1.27-4.41,2.08-6.79l3.09-9h2.51l-6.52,18.22Z" transform="translate(-7.2 -15.2)"/><path class="cls-3" d="M379.17,21.55v7.62H388V21.55h2.38V39.77H388V31.23h-8.81v8.54h-2.36V21.55Z" transform="translate(-7.2 -15.2)"/><rect class="cls-3" x="118.49" y="16.83" width="204.5" height="1.75"/></svg>